<svg xmlns="http://www.w3.org/2000/svg" width="28" height="28" viewBox="0 0 28 28">
    <g fill="#FFF">
        <path d="M14 0C6.28 0 0 6.28 0 14s6.28 14 14 14 14-6.28 14-14S21.72 0 14 0zm0 26.36C7.185 26.36 1.64 20.814 1.64 14 1.64 7.185 7.186 1.64 14 1.64c6.815 0 12.36 5.545 12.36 12.36 0 6.815-5.545 12.36-12.36 12.36z"/>
        <path d="M13.708 3.5c-5.95 0-10.791 4.841-10.791 10.792 0 5.95 4.84 10.791 10.791 10.791 5.95 0 10.792-4.84 10.792-10.791C24.5 8.342 19.659 3.5 13.708 3.5zm0 19.932c-5.04 0-9.14-4.1-9.14-9.14 0-5.04 4.1-9.14 9.14-9.14 5.04 0 9.14 4.1 9.14 9.14 0 5.04-4.1 9.14-9.14 9.14z"/>
        <path d="M19.833 9.328L18.673 8.167 13.99 12.85 9.328 8.186 8.167 9.347 12.829 14.011 11.669 15.172 12.829 16.333 13.99 15.172 15.151 16.333 16.312 15.172 15.151 14.011zM12.833 6.417L14.583 6.417 14.583 8.167 12.833 8.167zM12.833 19.833L14.583 19.833 14.583 21.583 12.833 21.583zM6.417 13.417L8.167 13.417 8.167 15.167 6.417 15.167zM19.833 13.417L21.583 13.417 21.583 15.167 19.833 15.167z"/>
    </g>
</svg>