<svg xmlns="http://www.w3.org/2000/svg" xmlns:xlink="http://www.w3.org/1999/xlink" width="18px" height="18px" viewBox="0 0 18 18" version="1.1">
    <title>icons/Interface/info</title>
    <defs>
        <path d="M10,12.5 C10.46,12.5 10.8333333,12.8733333 10.8333333,13.3333333 C10.8333333,13.7933333 10.46,14.1666667 10,14.1666667 C9.54,14.1666667 9.16666667,13.7933333 9.16666667,13.3333333 C9.16666667,12.8733333 9.54,12.5 10,12.5 Z M10,5.83333333 C10.46,5.83333333 10.8333333,6.20666667 10.8333333,6.66666667 L10.8333333,6.66666667 L10.8333333,10.8333333 C10.8333333,11.2933333 10.46,11.6666667 10,11.6666667 C9.54,11.6666667 9.16666667,11.2933333 9.16666667,10.8333333 L9.16666667,10.8333333 L9.16666667,6.66666667 C9.16666667,6.20666667 9.54,5.83333333 10,5.83333333 Z M10,16.6666667 C6.32416667,16.6666667 3.33333333,13.6758333 3.33333333,10 C3.33333333,6.32416667 6.32416667,3.33333333 10,3.33333333 C13.6758333,3.33333333 16.6666667,6.32416667 16.6666667,10 C16.6666667,13.6758333 13.6758333,16.6666667 10,16.6666667 M10,1.66666667 C5.3975,1.66666667 1.66666667,5.3975 1.66666667,10 C1.66666667,14.6025 5.3975,18.3333333 10,18.3333333 C14.6025,18.3333333 18.3333333,14.6025 18.3333333,10 C18.3333333,5.3975 14.6025,1.66666667 10,1.66666667" id="path-1"/>
    </defs>
    <g id="Limits-Updates" stroke="none" stroke-width="1" fill="none" fill-rule="evenodd" opacity="0.54">
        <g id="Limits-Default-V1e" transform="translate(-274.000000, -362.000000)">
            <g id="icons/Interface/info" transform="translate(273.000000, 361.000000)">
                <mask id="mask-2" fill="white">
                    <use xlink:href="#path-1"/>
                </mask>
                <use id="🎨-Icon-Сolor" fill="#101419" fill-rule="evenodd" transform="translate(10.000000, 10.000000) rotate(-180.000000) translate(-10.000000, -10.000000) " xlink:href="#path-1"/>
            </g>
        </g>
    </g>
</svg>