<svg xmlns="http://www.w3.org/2000/svg" width="25" height="20" viewBox="0 0 25 20">
    <g fill="#FFF" fill-rule="evenodd">
        <path d="M23.384 6.061h-2.362l-.663-4.995C20.264.395 19.647-.075 18.974.01L1.069 2.38c-.324.043-.618.214-.816.474-.2.258-.286.586-.242.909L1.522 15.14c.08.613.604 1.071 1.222 1.07.053 0 .106-.003.159-.01l1.186-.156v2.726c0 .68.551 1.23 1.231 1.23h18.064c.68 0 1.231-.55 1.231-1.23V7.291c0-.679-.551-1.23-1.231-1.23zm-3.19 0h-3.206l3.15-.417.056.417zM.824 3.652c-.014-.107.015-.215.082-.3.066-.088.164-.146.273-.16L19.08.823c.225-.029.432.128.465.353l.162 1.22-18.72 2.48-.163-1.224zM4.09 15.217l-1.292.17c-.224.03-.43-.128-.46-.352L1.42 8.123l2.669-.352v7.446zm.054-8.28l-2.833.374-.215-1.622 18.72-2.48.123.94.091.683-9.29 1.23H5.32c-.542 0-1.02.356-1.177.875zM23.794 18.77c0 .227-.183.41-.41.41H5.32c-.226 0-.41-.183-.41-.41V7.304l.002-.013c0-.226.184-.41.41-.41h18.062c.227 0 .41.184.41.41v11.48z"/>
        <path d="M18.046 12.42c.16-.122.302-.268.42-.433.655.908 1.9 1.097 2.782.423.882-.675 1.066-1.957.41-2.865-.375-.521-.968-.828-1.598-.827-.63.002-1.22.311-1.594.833-.653-.911-1.9-1.105-2.785-.432-.885.673-1.073 1.957-.42 2.868.653.912 1.9 1.105 2.785.433zm2.014-2.881c.66 0 1.195.55 1.195 1.23 0 .68-.535 1.23-1.195 1.23s-1.195-.55-1.195-1.23c0-.68.535-1.23 1.195-1.23zm-3.187 0c.66 0 1.195.55 1.195 1.23 0 .68-.535 1.23-1.195 1.23s-1.195-.55-1.195-1.23c0-.68.535-1.23 1.195-1.23zM6.667 8.718H7.693V9.744H6.667zM8.205 8.718H13.333V9.744H8.205zM6.667 10.256H13.334V11.282H6.667zM21.646 14.359H7.072c-.224 0-.405.172-.405.385v2.307c0 .213.18.385.405.385h14.574c.224 0 .405-.172.405-.385v-2.307c0-.213-.18-.385-.405-.385zm-.404 2.308H7.476v-1.539h13.766v1.539z"/>
    </g>
</svg>