<svg xmlns="http://www.w3.org/2000/svg" width="24" height="24" viewBox="0 0 24 24">
    <g fill="#FFF">
        <path d="M22.91 12.1V8.729c0-1.144-.888-2.075-2.01-2.165l-3.132-5.471c-.29-.506-.759-.868-1.32-1.018-.558-.15-1.142-.07-1.641.22L4.067 6.546H2.183C.979 6.546 0 7.524 0 8.728v13.09C0 23.021.978 24 2.182 24h18.545c1.204 0 2.182-.978 2.182-2.182v-3.373c.634-.226 1.091-.826 1.091-1.536v-3.272c0-.71-.457-1.31-1.09-1.536zm-3.277-5.554H14.88l3.566-2.076 1.188 2.076zm-1.73-3.023L12.71 6.546h-2.154l6.807-3.963.539.94zm-2.547-2.286c.246-.145.535-.183.81-.11.279.075.51.255.655.507l.001.002-8.433 4.91H6.236l9.12-5.31zm6.462 20.581c0 .602-.49 1.091-1.09 1.091H2.181c-.602 0-1.091-.49-1.091-1.09V8.727c0-.602.49-1.091 1.09-1.091h18.546c.602 0 1.091.49 1.091 1.09V12h-3.273c-1.804 0-3.272 1.468-3.272 3.273 0 1.805 1.468 3.273 3.272 3.273h3.273v3.272zm1.091-4.909c0 .301-.244.546-.545.546h-3.819c-1.203 0-2.181-.979-2.181-2.182 0-1.203.978-2.182 2.181-2.182h3.819c.3 0 .545.245.545.546v3.272z"/>
        <path d="M19 15c-.551 0-1 .449-1 1 0 .551.449 1 1 1 .551 0 1-.449 1-1 0-.551-.449-1-1-1z"/>
    </g>
</svg>